# xmcd CD database file
#
# Track frame offsets:
#	150
#	15997
#	29209
#	39225
#	54351
#	68539
#	82284
#	97932
#	109767
#	121564
#
# Disc length: 1841 seconds
#
# Revision: 1
# Processed by: cddbd v1.5.2PL0 Copyright (c) Steve Scherf et al.
# Submitted via: CDex 1.51
#
DISCID=71072f0a
DTITLE=Various Artist - 5 Minutos de Jazz - CD 01
DYEAR=2006
DGENRE=Jazz
TTITLE0=ORIGINAL DIXILAND JAZZ BAND - Livery Stable Blues
TTITLE1=SONNY ROLLINS - The Stopper
TTITLE2=JAMES P. JOHNSON - Carolina Shout
TTITLE3=LOUIS ARMSTRONG - Potato Head Blues
TTITLE4='DUKE' ELLINGTON - Creole Love Call
TTITLE5=ART TATUM - After You've Gone
TTITLE6=BILLIE HOLIDAY - Strange Fruit
TTITLE7='COUNT' BASIE - Tickle Toe
TTITLE8=TEDDY WILSON - Stompin' at the Savoy
TTITLE9='DIZZY' GILLESPIE - Salt Peanuts
EXTD=YEAR: 2006
EXTT0=
EXTT1=
EXTT2=
EXTT3=
EXTT4=
EXTT5=
EXTT6=
EXTT7=
EXTT8=
EXTT9=
PLAYORDER=
